{"title":"Two Sex Porn Hentai Manga Anime=MTR=","uid":7071597,"size":20504598,"categoryP":"porn","categoryS":"other","magnet":"?xt=urn:btih:3326fc2b68a0c0b66e20a54452df2d2913a3ec58&amp;dn=Two+Sex+Porn+Hentai+Manga+Anime%3DMTR%3D&amp;tr=udp%3A%2F%2Ftracker.openbittorrent.com%3A80&amp;tr=udp%3A%2F%2Fopen.demonii.com%3A1337&amp;tr=udp%3A%2F%2Ftracker.coppersurfer.tk%3A6969&amp;tr=udp%3A%2F%2Fexodus.desync.com%3A6969","seeders":0,"leechers":1,"uploader":"Devdeep","files":9,"time":1330699061,"description":"Complete name : Two Sex Porn Hentai Manga Anime=MTR=\nFormat : AVI\nFormat/Info : Audio Video Interleave\nFile size : 18.8 MiB\nDuration : 5mn 0s\nOverall bit rate : 526 Kbps\nVideo\nID : 0\nFormat : Indeo 4\nCodec ID : IV50\nCodec ID/Info : Intel Indeo Video 5.0 Wavelet\nDuration : 5mn 0s\nBit rate : 432 Kbps\nWidth : 320 pixels\nHeight : 240 pixels\nDisplay aspect ratio : 4:3\nFrame rate : 15.000 fps\nBits/(Pixel*Frame) : 0.375\nStream size : 15.5 MiB (82%)\nTitle : ????????\nAudio\nID : 1\nFormat : PCM\nFormat settings, Sign : Unsigned\nCodec ID : 1\nCodec ID/Hint : Microsoft\nDuration : 5mn 0s\nBit rate mode : Constant\nBit rate : 88.2 Kbps\nChannel(s) : 1 channel\nSampling rate : 11.025 KHz\nBit depth : 8 bits\nStream size : 3.15 MiB (17%)\nInterleave, duration : 67 ms (1.00 video frame)","torrent":{"xt":"urn:btih:3326fc2b68a0c0b66e20a54452df2d2913a3ec58","amp;dn":"Two+Sex+Porn+Hentai+Manga+Anime%3DMTR%3D","amp;tr":["udp%3A%2F%2Ftracker.openbittorrent.com%3A80","udp%3A%2F%2Fopen.demonii.com%3A1337","udp%3A%2F%2Ftracker.coppersurfer.tk%3A6969","udp%3A%2F%2Fexodus.desync.com%3A6969"],"infoHash":"3326fc2b68a0c0b66e20a54452df2d2913a3ec58","infoHashBuffer":{"type":"Buffer","data":[51,38,252,43,104,160,192,182,110,32,165,68,82,223,45,41,19,163,236,88]},"announce":[],"urlList":[]}}